<?xml version="1.0" encoding="utf-8"?>
<!-- Generator: Adobe Illustrator 16.0.0, SVG Export Plug-In . SVG Version: 6.00 Build 0)  -->
<!DOCTYPE svg PUBLIC "-//W3C//DTD SVG 1.1//EN" "http://www.w3.org/Graphics/SVG/1.1/DTD/svg11.dtd">
<svg version="1.1" id="Layer_1" xmlns="http://www.w3.org/2000/svg" xmlns:xlink="http://www.w3.org/1999/xlink" x="0px" y="0px"
	 width="1920px" height="280px" viewBox="0 0 1920 280" enable-background="new 0 0 1920 280" xml:space="preserve">
<g id="_x23_ffffffff">
	<path fill="#FFFFFF" d="M750.01,1.07c0.49,0,1.49,0,1.98,0c0.04,8.63-0.04,17.26,0.04,25.9c8.649,0.09,17.29-0.04,25.939,0.07
		c-0.479,2.53,1.57,6.74-1.97,7.48c0.01,73.18-0.02,146.36,0.02,219.55c-0.239,1.289,0.931,2.109,1.511,3.119
		c2.04-0.039,4.91-0.35,5.93,1.951c0.95,3.35,4.45,5.209,4.73,8.859c2.92,0,5.84,0,8.77-0.03c0.14-7.159-0.09-14.329,0.1-21.489
		c0.49-0.25,1.46-0.75,1.94-1c-0.04-15.84,0.07-31.681-0.05-47.51c-2.19,0.02-4.38,0.039-6.54,0.27c1.5,2.64,5.479,4.26,4.53,7.869
		c-1,4.211-7.15,5.361-9.23,1.381c-2.229-3.11,0.64-6.32,3.26-7.891c0.021-1.199,0.061-2.39,0.101-3.58
		c3.3-0.029,6.59-0.039,9.89,0.021c0.13,16.489-0.08,32.989,0.11,49.479c0.479,0.25,1.449,0.75,1.93,1
		c0.01,7.15-0.04,14.301,0.03,21.44c3.64,0.05,7.29,0.05,10.939,0c0.05-27.31,0.05-54.62-0.01-81.931
		c-3.97-0.049-7.95-0.01-11.92-0.069c-0.28-9.06,0.42-18.17,2.12-27.08c1.53-7.56,3.979-15.38,9.67-20.89
		c3.37,0.02,6.75,0.01,10.13-0.02c0.09-6.65-0.02-13.291,0.08-19.941c11.64-0.1,23.28,0.03,34.92-0.06
		c0.08-4.98-0.01-9.96,0.08-14.93c26.64-0.06,53.28-0.06,79.92,0c0.08,4.97-0.01,9.95,0.08,14.93c11.64,0.09,23.28-0.04,34.92,0.06
		c0.09,6.65-0.02,13.291,0.07,19.941c3.359,0.029,6.71,0.039,10.069,0.02c4.99,4.689,7.49,11.279,9.061,17.8
		c2.28,9.87,3.08,20.06,2.8,30.17c-3.979,0.06-7.96,0.021-11.93,0.069c-0.05,20.98-0.05,41.961,0,62.931
		c5.22,0.069,10.43,0.021,15.649,0.04c0.141-1.62,0.471-3.18,2.32-3.561c-0.04-15.83,0.07-31.649-0.05-47.479
		c-2.2,0.03-4.38,0.06-6.54,0.28c1.51,2.64,5.5,4.27,4.52,7.9c-1.02,4.189-7.16,5.31-9.22,1.34c-2.229-3.11,0.65-6.311,3.26-7.881
		c0.021-1.199,0.05-2.39,0.101-3.58c3.29-0.029,6.59-0.039,9.89,0.021c0.09,16.46,0.021,32.931,0.04,49.399
		c1.83,0.381,2.15,1.94,2.31,3.561c5.221-0.02,10.431,0.029,15.66-0.04c0.07-52.29,0.03-104.58,0.021-156.88
		c-1.67-0.07-3.311-0.12-4.94-0.18c4.99-11.95,9.891-23.95,14.99-35.86c5.3-0.09,10.61,0,15.92-0.08c0.05-3.97,0.05-7.95,0.01-11.92
		c-2.319-0.04-4.62-0.05-6.909-0.06c0-0.49,0.01-1.47,0.01-1.96c2.279-0.02,4.56-0.02,6.859-0.03c0-0.5,0.01-1.48,0.01-1.97
		c-2.3-0.02-4.59-0.02-6.869-0.03c0-0.5-0.01-1.48-0.021-1.97c2.29-0.02,4.58-0.02,6.88-0.05c0.03-1.31,0.08-2.62,0.131-3.94
		c0.47,0.01,1.409,0.01,1.879,0.02c0.03,1.3,0.07,2.61,0.131,3.92c2.279,0.03,4.569,0.03,6.88,0.05
		c-0.011,0.49-0.021,1.48-0.03,1.97c-2.29,0.01-4.58,0.01-6.85,0.02c0,0.5,0,1.48,0,1.97c2.279,0.02,4.56,0.02,6.859,0.04
		c0,0.49,0.01,1.47,0.01,1.96c-2.31,0.01-4.609,0.02-6.909,0.06c-0.05,3.97-0.05,7.95,0.01,11.92c35.3,0.07,70.61,0.06,105.92,0.01
		c0.03-2.65,0.03-5.29,0.08-7.94c3.3-0.05,6.61-0.04,9.92,0c0.03,2.65,0.03,5.29,0.08,7.94c4.64,0.06,9.28-0.01,13.92,0.07
		c5.11,11.91,10,23.91,15,35.86c-1.67,0.06-3.32,0.11-4.95,0.18c-0.01,58.63-0.05,117.26,0.021,175.88
		c5.31,0.06,10.62,0.06,15.939,0c0.13-7.16-0.109-14.319,0.101-21.479c0.479-0.25,1.449-0.75,1.93-1
		c-0.04-15.84,0.07-31.681-0.05-47.521c-2.2,0.03-4.38,0.06-6.54,0.271c1.5,2.649,5.47,4.26,4.529,7.869
		c-1,4.24-7.199,5.36-9.25,1.351c-2.189-3.101,0.681-6.28,3.28-7.841c0.011-1.199,0.05-2.399,0.101-3.59
		c3.29-0.029,6.59-0.029,9.89,0.021c0.13,16.489-0.08,32.989,0.11,49.479c0.479,0.25,1.449,0.75,1.93,1
		c0.01,7.15-0.04,14.301,0.03,21.45c10.649,0.05,21.29,0.05,31.939,0c0.08-23.68-0.01-47.35,0.04-71.03
		c0.271-8.939,2.771-18.25,8.98-24.939c5.39-5.971,13.17-9.141,21.01-10.21c-0.02-3.261-0.01-6.511,0.04-9.761
		c2.63-0.039,5.271-0.039,7.92,0c0.06,7.311,0.06,14.631,0,21.941c-2.649,0.029-5.29,0.029-7.92,0
		c-0.04-3.381-0.03-6.761-0.13-10.141c-7.33,0.92-14.61,3.891-19.59,9.49c-5.99,6.68-8.19,15.9-8.33,24.68
		c0.029,23.3-0.021,46.609,0.029,69.92c1.301,0.05,2.62,0.1,3.961,0.16c0.02,3.29,0.02,6.59-0.021,9.88
		c-303.97,0.06-607.95,0.06-911.92,0c-0.06-3.29-0.05-6.59-0.021-9.88c1.32-0.061,2.641-0.11,3.961-0.16
		c0.039-7.13,0.01-14.27,0.02-21.4c0.48-0.25,1.45-0.75,1.93-1c0.13-15.85,0.09-31.709,0.011-47.56c-2.181,0.03-4.37,0.06-6.54,0.29
		c1.529,2.62,5.51,4.26,4.529,7.87c-1,4.22-7.17,5.34-9.229,1.351c-2.21-3.111,0.66-6.301,3.27-7.861
		c0.03-1.209,0.061-2.399,0.101-3.59c3.3-0.029,6.6-0.039,9.89,0.021c0.08,16.479,0.021,32.96,0.04,49.44
		c0.48,0.25,1.45,0.75,1.94,1c0.189,7.16-0.04,14.319,0.09,21.489c9.31,0.05,18.62,0.05,27.939,0c0.08-6.319-0.02-12.63,0.07-18.93
		c7.97-0.101,15.95,0.021,23.93-0.069c0.05-16.311,0.05-32.631,0-48.931c-3.979-0.06-7.96-0.06-11.939,0
		c-0.07,4.64,0,9.28-0.07,13.931c-7.31,0.049-14.62,0.049-21.92,0c-0.06-37.311-0.06-74.631,0-111.941c7.3-0.05,14.61-0.05,21.92,0
		c0.07,4.65,0,9.29,0.07,13.93c3.979,0.06,7.96,0.06,11.939,0c0.061-4.63,0-9.26,0.05-13.89c1.301-0.05,2.61-0.09,3.921-0.13
		c0.04-1.31,0.079-2.62,0.13-3.92c6.63-0.06,13.26,0.03,19.89-0.06c0.05-7.84,0.07-15.69-0.01-23.54c-3.811,0.2-7.891,3.58-11.5,1.4
		c3.609-1.81,7.64-2.43,11.47-3.62c0.04-1.39,0.09-2.78,0.15-4.17c0.46,0,1.39,0.01,1.859,0.01c0.04,0.89,0.13,2.66,0.17,3.55
		c3.78-0.21,7.851-3.61,11.431-1.39c-3.63,1.79-7.65,2.43-11.49,3.61c-0.07,8.05-0.06,16.1,0,24.15
		c46.63,0.1,93.26-0.01,139.89,0.06c0.04,1.3,0.08,2.61,0.13,3.92c1.301,0.04,2.61,0.08,3.921,0.13
		c0.069,41.53-0.04,83.06,0.06,124.59c6.01,5.91,11.85,12,17.96,17.82c0.02,7.83-0.04,15.66,0.04,23.489c1.3,0,2.61,0,3.92,0
		c0.08-7.149,0.021-14.3,0.04-21.45c0.48-0.25,1.45-0.75,1.93-1c0.13-15.85,0.09-31.709,0.011-47.56
		c-2.181,0.03-4.37,0.06-6.54,0.29c1.52,2.609,5.47,4.24,4.55,7.84c-0.99,4.221-7.16,5.391-9.24,1.391
		c-2.229-3.101,0.64-6.32,3.26-7.871c0.021-1.209,0.061-2.399,0.101-3.59c3.3-0.029,6.59-0.039,9.89,0.021
		c0.13,16.489-0.08,32.989,0.11,49.479c0.479,0.25,1.449,0.75,1.93,1c0.01,7.15-0.04,14.301,0.04,21.44c3.3,0.05,6.61,0.05,9.93,0
		c0.08-77.81,0-155.63,0.03-233.44c-3.55-0.73-1.5-4.95-1.97-7.48c8.64-0.1,17.279,0.01,25.92-0.07c0.03-1.98,0.06-3.96,0.1-5.94
		c4.63-0.04,9.26-0.04,13.9,0c0.03,1.98,0.06,3.96,0.1,5.94c34.641,0.04,69.28,0.06,103.92,0C750.04,18.33,749.97,9.7,750.01,1.07
		 M634.03,23.03c-0.011,1.31-0.011,2.62,0,3.94c1.31,0,2.62,0,3.939,0c0-1.32,0-2.63,0-3.94C636.65,23.02,635.34,23.02,634.03,23.03
		 M640.03,23.03c-0.011,1.31-0.011,2.63,0,3.94c1.31,0,2.62,0,3.939,0c0-1.32,0-2.63,0-3.94C642.65,23.02,641.33,23.02,640.03,23.03
		 M608.04,29.03c0,0.73,0,2.2-0.01,2.94c55.979,0.05,111.96,0.05,167.93,0c0-0.74,0-2.21,0-2.94
		C719.99,28.98,664.01,28.98,608.04,29.03 M610.03,34.03c-0.05,77.98-0.05,155.96,0,233.94c6.64,0.05,13.279,0.04,19.92,0
		c0.01-1.149,0.03-2.3,0.05-3.45c0.48-0.25,1.45-0.75,1.94-1c0.17-21.819-0.03-43.66,0.1-65.479c7.97-0.06,15.95-0.06,23.92,0
		c0.09,21.95,0.01,43.899,0.04,65.85c0.74,0.051,2.22,0.16,2.96,0.21c0.021,1.29,0.06,2.58,0.1,3.881
		c38.301,0.029,76.601,0.05,114.91-0.011c0.05-77.979,0.05-155.96,0-233.94C719.32,33.98,664.68,33.98,610.03,34.03 M1158.04,50.02
		c-0.07,3.99-0.07,7.97,0,11.96c1.96,0.01,3.93,0.01,5.92,0c0.05-3.99,0.05-7.97,0-11.96C1161.97,50.01,1160,50.01,1158.04,50.02
		 M1033.36,58.02c-3.94,9.29-7.83,18.6-11.641,27.94c56.19,0.07,112.37,0.07,168.561,0c-3.811-9.34-7.71-18.64-11.63-27.93
		c-4.2-0.05-8.4-0.04-12.601-0.01c-0.05,1.99-0.08,3.97-0.1,5.95c-3.311,0.04-6.61,0.04-9.9,0c-0.05-1.98-0.08-3.96-0.1-5.94
		C1115.08,57.98,1074.22,57.99,1033.36,58.02 M1020.09,89.97c57.271,0.05,114.54,0.04,171.811,0.01
		c-0.181-0.49-0.561-1.47-0.75-1.96c-56.771-0.03-113.53-0.04-170.301,0C1020.66,88.51,1020.28,89.49,1020.09,89.97 M1024.03,92.03
		c-0.05,58.65-0.05,117.291,0,175.93c2.689,0.04,5.39,0.04,8.1,0.04c0.07-2.65,1.14-5.07,3.51-6.4c0.45-3.279,3.28-5.27,6.54-4.75
		c2.29-2.5,5.681-2.14,7.891,0.271c3.369-0.67,6.14,1.59,6.58,4.899c2,1.41,3.119,3.58,3.51,5.971c26.93,0,53.87,0.05,80.81-0.021
		c0.101-23.31-0.04-46.63,0.07-69.93c8.3-0.06,16.61-0.06,24.92,0c0.11,23.31-0.03,46.62,0.07,69.93c7.31,0.05,14.62,0.05,21.939,0
		c0.05-58.649,0.05-117.29,0-175.94C1133.32,91.98,1078.68,91.98,1024.03,92.03 M406.06,100.01c0.011,0.5,0.011,1.49,0.021,1.98
		c52.61,0.01,105.229,0.02,157.85,0c0-0.49,0-1.49,0-1.98C511.31,100,458.68,99.99,406.06,100.01 M368.03,104.04
		c-0.05,35.97-0.05,71.95,0,107.92c5.979,0.06,11.96,0.06,17.939,0c0.05-35.97,0.05-71.95,0-107.92
		C379.99,103.98,374.01,103.98,368.03,104.04 M402.03,104.03c-0.05,54.65-0.05,109.291,0,163.94c7.31,0.05,14.62,0.05,21.939,0
		c0.101-23.31-0.04-46.62,0.061-69.93c8.649-0.06,17.29-0.06,25.93,0c0.11,23.3-0.03,46.61,0.07,69.92c8.31,0.06,16.62,0.06,24.93,0
		c0.05-3.3,0.05-6.59,0.021-9.89c-1.7-0.061-3.4-0.1-5.08-0.16c0.06-1.85-0.36-4.12,2.1-4.439c0.01-6.48-0.04-12.961,0.04-19.431
		c24.64-0.06,49.28-0.06,73.92,0c0.07,6.47,0.03,12.95,0.04,19.431c2.46,0.319,2.03,2.6,2.1,4.449
		c-2.029,0.051-4.05,0.09-6.08,0.141c-0.029,3.299-0.039,6.6,0.021,9.899c8.64,0.06,17.28,0.06,25.93,0
		c0.05-54.64,0.05-109.28,0-163.93C512.65,103.98,457.34,103.98,402.03,104.03 M861.03,105.03c-0.05,9.31-0.05,18.62,0,27.941
		c25.31,0.049,50.62,0.049,75.939,0c0.05-9.321,0.05-18.631,0-27.941C911.65,104.98,886.34,104.98,861.03,105.03 M388.03,118.04
		c-0.05,26.64-0.05,53.28,0,79.92c3.979,0.06,7.96,0.06,11.939,0c0.05-26.64,0.05-53.28,0-79.92
		C395.99,117.98,392.01,117.98,388.03,118.04 M826.04,120.03c-0.07,5.98-0.06,11.96,0,17.93c48.64,0.06,97.28,0.06,145.92,0.011
		c0.06-5.98,0.06-11.961,0-17.941c-10.97-0.05-21.95-0.05-32.92,0.01c-0.09,4.97,0,9.95-0.08,14.92c-26.64,0.06-53.28,0.06-79.92,0
		c-0.09-4.97,0-9.95-0.08-14.92C847.99,119.98,837.01,119.98,826.04,120.03 M812.53,142.561c-4.221,5.939-5.87,13.229-7.061,20.289
		c-0.95,6.99-1.649,14.051-1.45,21.11c63.32,0.069,126.641,0.06,189.961,0c0.159-8.021-0.561-16.05-1.95-23.94
		c-1.4-7.029-3.42-14.39-8.46-19.74c-4.16-0.659-8.44-0.109-12.641-0.279c-51.689,0.02-103.37-0.04-155.06,0.029
		C814.14,139.7,813.43,141.49,812.53,142.561 M1276.04,154.029c-0.07,5.98-0.07,11.961,0,17.941c1.29,0,2.6,0,3.92,0
		c0.06-5.98,0.06-11.961,0-17.941C1278.64,154.02,1277.33,154.02,1276.04,154.029 M816.03,186.029c-0.05,27.311-0.05,54.631,0,81.94
		c9.3,0.061,18.59,0.03,27.89,0.011c0.04-1.32,0.1-2.65,0.16-3.961c12.61-0.029,25.22-0.029,37.84,0
		c0.04,1.311,0.1,2.641,0.16,3.961c9.29,0.02,18.59,0.05,27.89-0.011c0.101-23.31-0.04-46.63,0.07-69.93
		c16.64-0.06,33.28-0.06,49.92,0c0.11,23.3-0.03,46.62,0.07,69.93c7.31,0.05,14.62,0.05,21.939,0c0.05-27.31,0.05-54.63,0-81.94
		C926.65,185.98,871.34,185.98,816.03,186.029 M426.03,200.029c-0.05,22.65-0.05,45.291,0,67.94c7.31,0.05,14.62,0.05,21.939,0
		c0.05-22.649,0.05-45.29,0-67.94C440.65,199.98,433.34,199.98,426.03,200.029 M634.03,200.029c-0.05,21.311-0.05,42.631,0.01,63.94
		c6.64,0.05,13.28,0.05,19.93,0c0.05-21.31,0.05-42.63,0-63.94C647.32,199.98,640.68,199.98,634.03,200.029 M912.03,200.029
		c-0.05,22.65-0.05,45.291,0,67.94c15.31,0.05,30.62,0.05,45.939,0c0.05-22.649,0.05-45.29,0-67.94
		C942.65,199.98,927.34,199.98,912.03,200.029 M1143.03,200.029c-0.05,22.65-0.05,45.291,0,67.94c6.979,0.05,13.95,0.05,20.939,0
		c0.05-22.649,0.05-45.29,0-67.94C1156.98,199.98,1150.01,199.98,1143.03,200.029 M335.42,202.529
		c-1.56,0.941-2.07,3.33-0.479,4.511c1.88,2.569,5.939-0.261,5-3C339.08,202.52,336.95,201.07,335.42,202.529 M585.31,202.62
		c-1.489,0.95-1.92,3.29-0.369,4.409c1.55,2.271,5.18,0.361,5.04-2.039C590.11,202.859,586.96,200.85,585.31,202.62 M790.39,202.55
		c-1.529,0.94-2.029,3.28-0.489,4.45c1.859,2.641,6-0.21,5.029-2.98C794.07,202.5,791.91,201.061,790.39,202.55 M993.37,202.57
		c-1.51,0.939-2.01,3.26-0.47,4.43c1.85,2.641,5.989-0.2,5.029-2.96C997.08,202.5,994.88,201.04,993.37,202.57 M1199.4,202.55
		c-1.551,0.94-2.051,3.3-0.471,4.47c1.86,2.61,5.971-0.25,5-2.99C1203.08,202.5,1200.91,201.061,1199.4,202.55 M570.04,229.6
		c-0.07,4.791-0.06,9.58-0.01,14.371c4.79,0.039,9.58,0.049,14.37-0.011C579.76,239.029,574.96,234.24,570.04,229.6 M474.05,236.01
		c0.01,0.5,0.03,1.49,0.04,1.99c23.28,0,46.561,0.01,69.84-0.01c0-0.49,0-1.49-0.01-1.99C520.63,236,497.34,235.99,474.05,236.01
		 M474.08,240c-0.01,0.5-0.01,1.5-0.01,2c23.29,0,46.58,0,69.859-0.01c0-0.49-0.01-1.49-0.01-1.99C520.64,240,497.36,240,474.08,240
		 M474.07,244.01c0,0.49,0,1.49,0.01,1.99c23.28,0,46.57,0.01,69.86-0.01c0-0.5-0.011-1.49-0.021-1.99
		C520.63,244,497.35,243.99,474.07,244.01 M570.03,246.04c-0.05,7.3-0.05,14.61,0,21.92c5.31,0.06,10.62,0.06,15.939,0
		c0.05-7.31,0.05-14.62,0-21.92C580.65,245.98,575.34,245.98,570.03,246.04 M474.08,248c0,0.5-0.01,1.5-0.01,1.99
		c23.279,0.02,46.569,0.01,69.859,0.01c0-0.5,0-1.5,0-2C520.64,248,497.36,248,474.08,248 M378.04,251.029
		c-0.06,5.641-0.06,11.291,0,16.94c1.3,0,2.61,0,3.92,0c0.06-5.649,0.06-11.3,0-16.94C380.65,251.02,379.34,251.02,378.04,251.029
		 M384.04,251.029c-0.06,5.641-0.06,11.291,0,16.94c1.3,0,2.61,0,3.92,0c0.06-5.649,0.06-11.29,0-16.94
		C386.65,251.02,385.34,251.02,384.04,251.029 M390.04,251.029c-0.06,5.641-0.06,11.291,0,16.94c1.3,0,2.61,0,3.92,0
		c0.06-5.649,0.06-11.3,0-16.94C392.65,251.02,391.34,251.02,390.04,251.029 M396.04,251.029c-0.06,5.641-0.06,11.291,0,16.94
		c1.3,0,2.61,0,3.92,0c0.06-5.649,0.06-11.3,0-16.94C398.65,251.02,397.34,251.02,396.04,251.029 M984.04,251.029
		c-0.07,5.641-0.07,11.291,0,16.94c1.29,0,2.6,0,3.92,0c0.06-5.649,0.06-11.3,0-16.94C986.64,251.02,985.33,251.02,984.04,251.029
		 M990.04,251.029c-0.07,5.641-0.07,11.291,0,16.94c1.29,0,2.6,0,3.92,0c0.06-5.649,0.06-11.3,0-16.94
		C992.64,251.02,991.33,251.02,990.04,251.029 M996.04,251.029c-0.07,5.641-0.07,11.291,0,16.94c1.29,0,2.6,0,3.92,0
		c0.06-5.649,0.06-11.29,0-16.94C998.64,251.02,997.33,251.02,996.04,251.029 M1006.04,251.029c-0.07,5.65-0.07,11.291,0,16.94
		c1.29,0,2.6,0,3.92,0c0.06-5.649,0.06-11.3,0-16.94C1008.64,251.02,1007.33,251.02,1006.04,251.029 M1012.04,251.029
		c-0.07,5.641-0.07,11.291,0,16.94c1.29,0,2.6,0,3.92,0c0.06-5.649,0.06-11.3,0-16.94
		C1014.64,251.02,1013.33,251.02,1012.04,251.029 M1018.04,251.029c-0.07,5.641-0.07,11.291,0,16.94c1.29,0,2.6,0,3.92,0
		c0.06-5.649,0.06-11.3,0-16.94C1020.64,251.02,1019.33,251.02,1018.04,251.029 M474.08,252c0,0.5-0.01,1.5-0.01,1.99
		C497.35,254,520.64,254,543.93,254c0-0.5,0-1.5,0-2C520.64,252,497.36,252,474.08,252 M1043,258.88c-1.32,0.04-2.61,0.14-3.89,0.28
		c-1.181,1.57-1.351,3.77-3.13,4.87c-1.471,0.77-1.511,2.359-1.541,3.81c7.601,0.26,15.23,0.23,22.841,0.061
		c1.55-1.971-1.141-3.24-2.22-4.46c-0.53-1.301-1-2.62-1.621-3.87c-2.119-0.461-4.56-0.1-6.149-1.87
		C1045.82,255.891,1044.32,258.12,1043,258.88 M477.04,258.04c-0.06,3.3-0.06,6.61,0,9.92c20.97,0.06,41.95,0.06,62.92,0.01
		c0.05-3.319,0.05-6.63,0-9.93C518.99,257.98,498.01,257.98,477.04,258.04 M775.99,259.02c0.02,2.98-0.021,5.961,0.04,8.94
		c3.109,0.01,6.229,0.17,9.34-0.07c1.28-2.08-1.11-3.18-2.33-4.439c-0.47-1.33-0.99-2.65-1.6-3.9
		C779.67,259.061,777.78,259.311,775.99,259.02 M632.08,266c-0.01,0.5-0.01,1.5-0.01,2c8.279,0,16.569,0,24.859,0c0-0.5,0-1.5,0-2
		C648.64,266,640.36,266,632.08,266 M846.06,266.01c0.011,0.49,0.021,1.49,0.021,1.99c11.28,0,22.56,0,33.84,0
		c0.01-0.5,0.01-1.5,0.021-1.99C868.64,265.99,857.35,266,846.06,266.01 M340.02,270.04c-0.01,1.97-0.01,3.94,0,5.92
		c302.65,0.07,605.311,0.07,907.961,0c-0.011-1.979-0.011-3.95,0-5.92C945.33,269.97,642.67,269.97,340.02,270.04z"/>
	<path fill="#FFFFFF" d="M632.04,56.04c7.97-0.06,15.95-0.06,23.92,0c0.08,15.14,0.021,30.28,0.04,45.43
		c2.46,0.33,2.02,2.61,2.1,4.47c-9.399,0.1-18.8,0.1-28.199,0c0.069-1.85-0.37-4.14,2.1-4.47
		C632.02,86.32,631.95,71.18,632.04,56.04 M634.03,58.03c-0.05,6.98-0.05,13.96,0,20.94c6.649,0.05,13.29,0.05,19.939,0
		c0.05-6.98,0.05-13.96,0-20.94C647.32,57.98,640.68,57.98,634.03,58.03 M634.03,81.03c-0.05,6.98-0.05,13.96,0,20.94
		c6.649,0.05,13.29,0.05,19.939,0c0.05-6.98,0.05-13.96,0-20.94C647.32,80.98,640.68,80.98,634.03,81.03z"/>
	<path fill="#FFFFFF" d="M680.04,56.04c7.97-0.06,15.95-0.06,23.92-0.01c0.08,15.15,0.021,30.29,0.04,45.44
		c2.46,0.33,2.02,2.62,2.1,4.47c-9.399,0.1-18.8,0.1-28.199,0c0.069-1.85-0.37-4.14,2.1-4.47
		C680.02,86.32,679.95,71.18,680.04,56.04 M682.03,58.03c-0.05,6.98-0.05,13.96,0,20.94c6.649,0.05,13.29,0.05,19.939,0
		c0.05-6.98,0.05-13.96,0-20.94C695.32,57.98,688.68,57.98,682.03,58.03 M682.03,81.03c-0.05,6.98-0.05,13.96,0,20.94
		c6.649,0.05,13.29,0.05,19.939,0c0.05-6.98,0.05-13.96,0-20.94C695.32,80.98,688.68,80.98,682.03,81.03z"/>
	<path fill="#FFFFFF" d="M728.04,56.04c7.97-0.06,15.95-0.06,23.92,0c0.08,15.14,0.021,30.28,0.04,45.43
		c2.46,0.33,2.02,2.61,2.1,4.47c-9.399,0.1-18.8,0.1-28.199,0c0.06-1.86-0.37-4.14,2.1-4.47C728.02,86.32,727.95,71.18,728.04,56.04
		 M730.03,58.03c-0.05,6.98-0.05,13.96,0,20.94c6.649,0.05,13.29,0.05,19.939,0c0.05-6.98,0.05-13.96,0-20.94
		C743.32,57.98,736.68,57.98,730.03,58.03 M730.03,81.03c-0.05,6.98-0.05,13.96,0,20.94c6.649,0.05,13.29,0.05,19.939,0
		c0.05-6.98,0.05-13.96,0-20.94C743.32,80.98,736.68,80.98,730.03,81.03z"/>
	<path fill="#FFFFFF" d="M1046.04,102.04c16.64-0.06,33.28-0.06,49.92,0c0.08,15.14,0.021,30.28,0.04,45.431
		c2.45,0.329,2.02,2.609,2.1,4.469c-18.069,0.101-36.14,0.101-54.199,0c0.06-1.85-0.381-4.14,2.1-4.469
		C1046.02,132.32,1045.95,117.18,1046.04,102.04 M1048.03,104.04c-0.04,2.64-0.04,5.28,0,7.92c15.31,0.06,30.63,0.06,45.939,0
		c0.03-2.64,0.03-5.28,0-7.92C1078.65,103.97,1063.34,103.97,1048.03,104.04 M1048.04,114.03c-0.07,11.31-0.06,22.621-0.01,33.941
		c15.31,0.049,30.62,0.049,45.939,0c0.05-11.311,0.05-22.631-0.01-33.941C1078.65,113.98,1063.34,113.98,1048.04,114.03z"/>
	<path fill="#FFFFFF" d="M1116.04,102.04c16.64-0.06,33.28-0.06,49.93,0c0.07,15.14,0.011,30.28,0.03,45.431
		c2.46,0.329,2.02,2.609,2.1,4.469c-18.069,0.101-36.14,0.101-54.199,0c0.06-1.859-0.381-4.14,2.1-4.469
		C1116.02,132.32,1115.95,117.18,1116.04,102.04 M1118.03,104.04c-0.05,2.64-0.05,5.28,0,7.92c15.31,0.06,30.62,0.06,45.939,0
		c0.03-2.64,0.03-5.28,0-7.92C1148.65,103.97,1133.34,103.98,1118.03,104.04 M1118.03,114.04c-0.05,11.3-0.061,22.61,0.01,33.931
		c15.3,0.049,30.61,0.049,45.92,0c0.06-11.32,0.06-22.631,0.01-33.941C1148.65,113.98,1133.34,113.98,1118.03,114.04z"/>
	<path fill="#FFFFFF" d="M424.04,126.04c16.64-0.06,33.28-0.06,49.92,0c0.08,15.14,0.021,30.28,0.04,45.431
		c2.46,0.329,2.03,2.609,2.1,4.469c-18.069,0.101-36.13,0.101-54.199,0c0.069-1.859-0.37-4.14,2.1-4.469
		C424.02,156.32,423.95,141.18,424.04,126.04 M426.04,128.029c-0.06,3.98-0.06,7.961,0,11.941c7.3,0.049,14.61,0.049,21.92,0
		c0.06-3.98,0.06-7.961,0-11.941C440.65,127.98,433.34,127.98,426.04,128.029 M450.04,128.029c-0.06,3.98-0.06,7.961,0,11.941
		c7.3,0.049,14.61,0.049,21.92,0c0.05-3.98,0.06-7.961,0-11.941C464.65,127.98,457.34,127.98,450.04,128.029 M426.03,142.029
		c-0.05,9.98-0.05,19.961,0,29.941c15.31,0.049,30.63,0.049,45.939,0c0.05-9.98,0.05-19.961,0-29.941
		C456.65,141.98,441.34,141.98,426.03,142.029z"/>
	<path fill="#FFFFFF" d="M496.04,126.04c16.64-0.06,33.28-0.06,49.92,0c0.08,15.14,0.021,30.28,0.04,45.431
		c2.46,0.329,2.02,2.619,2.1,4.469c-18.069,0.101-36.13,0.101-54.199,0c0.069-1.859-0.37-4.14,2.1-4.469
		C496.02,156.32,495.95,141.18,496.04,126.04 M498.04,128.029c-0.06,3.98-0.06,7.961,0,11.941c7.3,0.049,14.61,0.049,21.92,0
		c0.06-3.98,0.06-7.961,0-11.941C512.65,127.98,505.34,127.98,498.04,128.029 M522.04,128.029c-0.06,3.98-0.06,7.961,0,11.941
		c7.3,0.049,14.61,0.049,21.92,0c0.06-3.98,0.05-7.961,0-11.941C536.65,127.98,529.34,127.98,522.04,128.029 M498.03,142.029
		c-0.05,9.98-0.05,19.961,0,29.941c15.31,0.049,30.62,0.049,45.939,0c0.05-9.98,0.05-19.961,0-29.941
		C528.65,141.98,513.34,141.98,498.03,142.029z"/>
	<path fill="#FFFFFF" d="M632.04,126.04c7.97-0.06,15.95-0.06,23.93,0c0.07,15.14,0.011,30.28,0.03,45.431
		c2.46,0.329,2.02,2.619,2.1,4.469c-9.399,0.101-18.8,0.101-28.199,0c0.069-1.85-0.381-4.14,2.1-4.469
		C632.02,156.32,631.95,141.18,632.04,126.04 M634.03,128.029c-0.05,6.98-0.05,13.961,0,20.941c6.649,0.049,13.29,0.049,19.939,0
		c0.05-6.98,0.05-13.961,0-20.941C647.32,127.98,640.68,127.98,634.03,128.029 M634.03,151.029c-0.05,6.98-0.05,13.961,0,20.941
		c6.649,0.049,13.29,0.049,19.939,0c0.05-6.98,0.05-13.961,0-20.941C647.32,150.98,640.68,150.98,634.03,151.029z"/>
	<path fill="#FFFFFF" d="M680.03,126.04c7.979-0.06,15.96-0.06,23.93-0.011c0.08,15.15,0.021,30.291,0.04,45.441
		c2.46,0.329,2.02,2.609,2.1,4.469c-9.399,0.101-18.8,0.101-28.199,0c0.069-1.85-0.381-4.14,2.1-4.469
		C680.02,156.32,679.95,141.18,680.03,126.04 M682.03,128.029c-0.05,6.98-0.05,13.961,0,20.941c6.649,0.049,13.29,0.049,19.939,0
		c0.05-6.98,0.05-13.961,0-20.941C695.32,127.98,688.68,127.98,682.03,128.029 M682.03,151.029c-0.05,6.98-0.05,13.961,0,20.941
		c6.649,0.049,13.29,0.049,19.939,0c0.05-6.98,0.05-13.961,0-20.941C695.32,150.98,688.68,150.98,682.03,151.029z"/>
	<path fill="#FFFFFF" d="M728.04,126.029c7.97-0.049,15.95-0.049,23.92,0.011c0.08,15.14,0.021,30.28,0.04,45.431
		c2.46,0.329,2.02,2.609,2.1,4.469c-9.399,0.101-18.8,0.101-28.199,0c0.069-1.85-0.381-4.14,2.1-4.469
		C728.02,156.32,727.95,141.18,728.04,126.029 M730.03,128.029c-0.05,6.98-0.05,13.961,0,20.941c6.649,0.049,13.29,0.049,19.939,0
		c0.05-6.98,0.05-13.961,0-20.941C743.32,127.98,736.68,127.98,730.03,128.029 M730.03,151.029c-0.05,6.98-0.05,13.961,0,20.941
		c6.649,0.049,13.29,0.049,19.939,0c0.05-6.98,0.05-13.961,0-20.941C743.32,150.98,736.68,150.98,730.03,151.029z"/>
	<path fill="#FFFFFF" d="M1538.03,147.029c40.649-0.049,81.29-0.049,121.939,0c0.03,3.65,0.011,7.291,0.061,10.941
		c18.63,0.09,37.26-0.011,55.89,0.049c0.03,1.311,0.08,2.631,0.15,3.951c1.949,0.02,3.91,0.039,5.899,0.079
		c3.42,7.921,6.69,15.91,9.98,23.89c-3.98,0.101-7.95,0.031-11.91,0.09c-0.07,22.921-0.05,45.841-0.021,68.75
		c0.95,0.791,1.92,1.58,2.91,2.371c3.42-0.75,6.33,1.5,6.76,4.92c2.011,1.39,3.101,3.529,3.471,5.92c4.6,0,9.2,0.029,13.8-0.021
		c0.04-3.3,0.04-6.6,0.021-9.899c-1.721-0.061-3.41-0.1-5.08-0.16c0.05-1.85-0.37-4.11,2.1-4.439c0.01-6.48-0.04-12.961,0.04-19.431
		c24.64-0.06,49.28-0.06,73.92,0c0.07,6.47,0.021,12.95,0.03,19.431c2.449,0.329,2.02,2.6,2.109,4.449
		c-2.039,0.051-4.069,0.09-6.08,0.141c-0.039,3.299-0.05,6.6,0.021,9.899c12.3,0.06,24.61,0.06,36.93,0
		c0.011-2.19,0.021-4.38,0.03-6.56c-6.72-2.891-7.8-10.891-8.561-17.28c-1.069-12.729-0.439-25.78,3.03-38.12
		c1.16-3.311,2.37-7.23,5.72-8.95c2.961-0.54,4.66,2.65,5.771,4.9c3.56,8.17,4.34,17.229,4.97,26.04
		c0.16,9.07,0.431,18.51-2.84,27.14c-1.01,2.91-3.46,4.88-6.09,6.271c-0.02,2.18-0.02,4.369,0.03,6.56
		c7.979,0.1,15.95-0.02,23.93,0.08c0.04,3.3,0.04,6.61,0,9.92c-152.97,0.06-305.95,0.06-458.92,0c-0.06-3.31-0.07-6.62,0-9.92
		c12.64-0.11,25.28,0.03,37.93-0.08c0.061-7.14,0.021-14.29,0.021-21.44c0.49-0.25,1.46-0.75,1.949-1
		c0.121-15.85,0.08-31.709,0-47.56c-2.189,0.03-4.379,0.06-6.539,0.28c1.51,2.63,5.46,4.24,4.539,7.84
		c-0.97,4.23-7.149,5.4-9.22,1.41c-2.239-3.1,0.63-6.32,3.25-7.881c0.011-1.199,0.05-2.399,0.101-3.59
		c3.29-0.029,6.59-0.039,9.89,0.021c0.13,16.489-0.08,32.989,0.11,49.479c0.479,0.25,1.449,0.75,1.93,1
		c0.01,7.15-0.04,14.301,0.03,21.44c5.31,0.06,10.62,0.06,15.939,0c0.05-27.31,0.05-54.62-0.01-81.931
		c-3.97-0.059-7.95,0-11.91-0.09c3.28-7.979,6.561-15.969,9.99-23.89c1.94-0.04,3.91-0.06,5.89-0.079
		c0.03-1.32,0.08-2.641,0.15-3.951c18.63-0.069,37.26,0.041,55.89-0.049C1538,154.32,1537.98,150.68,1538.03,147.029
		 M1540.03,149.029c-0.061,7.98-0.061,15.961,0,23.941c39.31,0.049,78.62,0.049,117.939,0c0.05-7.98,0.05-15.961,0-23.941
		C1618.65,148.98,1579.34,148.98,1540.03,149.029 M1484.07,160c0,0.5,0,1.5,0.01,2c17.939,0,35.9,0,53.85,0c0-0.5,0-1.5,0-2
		C1519.97,160,1502.02,160,1484.07,160 M1660.07,160c0,0.5,0,1.5,0,2c17.949,0,35.91,0.01,53.859-0.01c0-0.49,0-1.49,0-1.98
		C1695.98,159.99,1678.02,160,1660.07,160 M1477.36,164.02c-2.82,6.621-5.62,13.25-8.29,19.931c86.619,0.079,173.24,0.079,259.859,0
		c-2.68-6.671-5.479-13.3-8.279-19.921c-20.211-0.039-40.41-0.059-60.62,0c-0.05,3.65-0.03,7.291-0.061,10.931
		c-40.649,0.06-81.29,0.06-121.939,0c-0.05-3.64-0.03-7.28-0.061-10.931C1517.76,163.971,1497.561,163.99,1477.36,164.02
		 M1480.03,186.029c-0.05,27.311-0.05,54.631,0,81.94c31.31,0.05,62.62,0.05,93.939,0c0.05-7.319,0.05-14.63,0-21.94
		c-23.979-0.1-47.96,0.041-71.93-0.069c-0.07-15.97-0.07-31.95,0-47.92c64.64-0.06,129.28-0.06,193.92,0
		c0.06,15.97,0.06,31.95,0,47.931c-23.97,0.1-47.95-0.041-71.93,0.059c-0.061,7.311-0.061,14.621,0,21.94
		c27.03,0.08,54.06,0.011,81.1,0.03c0.07-2.65,1.13-5.05,3.5-6.4c0.431-1.869,1.57-3.39,2.96-4.67c0.91,0.03,2.71,0.08,3.62,0.11
		c0.9-0.771,1.82-1.54,2.78-2.29c0-22.91,0.04-45.811-0.021-68.721C1638.66,185.98,1559.34,185.98,1480.03,186.029 M1851.37,199.29
		c-3.79,3.72-4.54,9.33-5.681,14.28c-1.93,11.99-2.579,24.369-0.329,36.369c0.89,3.391,1.96,7.801,5.75,9.011
		c3.3,0.68,5.47-2.591,6.42-5.29c2.38-6.92,2.5-14.391,2.479-21.641c-0.39-10.029-0.949-20.47-5.1-29.76
		C1854.1,201.2,1852.75,198.05,1851.37,199.29 M1504.03,200.029c-0.061,14.65-0.05,29.291,0,43.941c7.31,0.049,14.62,0.049,21.93,0
		c0.06-14.65,0.06-29.291,0-43.941C1518.65,199.98,1511.34,199.98,1504.03,200.029 M1528.03,200.029
		c-0.061,14.65-0.061,29.291,0.01,43.941c7.3,0.049,14.61,0.049,21.93,0c0.05-14.65,0.05-29.291,0-43.941
		C1542.65,199.98,1535.34,199.98,1528.03,200.029 M1552.04,200.029c-0.07,14.65-0.07,29.291,0,43.941c7.3,0.049,14.61,0.049,21.93,0
		c0.05-14.65,0.05-29.291,0-43.941C1566.65,199.98,1559.34,199.98,1552.04,200.029 M1576.03,200.029
		c-0.05,22.65-0.05,45.291,0,67.94c15.31,0.05,30.62,0.05,45.939,0c0.05-22.649,0.05-45.29-0.01-67.94
		C1606.65,199.98,1591.34,199.98,1576.03,200.029 M1624.03,200.029c-0.061,14.65-0.05,29.291,0,43.941
		c7.31,0.049,14.62,0.049,21.93,0c0.06-14.65,0.06-29.291,0.01-43.941C1638.65,199.98,1631.34,199.98,1624.03,200.029
		 M1648.03,200.029c-0.061,14.65-0.061,29.291,0.01,43.941c7.3,0.049,14.61,0.049,21.93,0c0.05-14.65,0.05-29.291-0.01-43.941
		C1662.65,199.98,1655.34,199.98,1648.03,200.029 M1672.04,200.029c-0.07,14.65-0.07,29.291,0,43.941c7.3,0.049,14.61,0.049,21.93,0
		c0.05-14.65,0.05-29.291,0-43.941C1686.65,199.98,1679.34,199.98,1672.04,200.029 M1449.38,202.561
		c-1.53,0.939-2.03,3.299-0.46,4.459c1.87,2.61,5.97-0.24,5.01-2.99C1453.07,202.49,1450.89,201.061,1449.38,202.561
		 M1746.07,236.01c0,0.49,0.01,1.49,0.01,1.99c23.28,0,46.56,0,69.84,0c0.01-0.5,0.01-1.5,0.01-2
		C1792.64,236,1769.35,236,1746.07,236.01 M1746.061,240.01c0,0.5,0.02,1.49,0.029,1.99c23.271,0,46.55,0,69.83,0
		c0-0.5,0.01-1.5,0.01-1.99C1792.64,240,1769.35,239.99,1746.061,240.01 M1746.07,244.01c0,0.49,0.01,1.49,0.01,1.99
		c23.28,0,46.57,0,69.85,0c0-0.5-0.01-1.5-0.01-2C1792.64,244,1769.35,243.99,1746.07,244.01 M1746.08,248
		c-0.01,0.5-0.01,1.5-0.01,2c23.29,0,46.569,0,69.859,0c0-0.5,0-1.5-0.01-2C1792.64,248,1769.36,248,1746.08,248 M1746.07,252
		c0,0.5,0,1.5,0,2c23.279,0,46.569,0,69.85,0c0-0.5,0.01-1.5,0.01-2C1792.64,252,1769.36,252,1746.07,252 M1715.99,258.87
		c-1.301,0.05-2.58,0.149-3.84,0.29c-1.301,1.51-1.34,3.8-3.181,4.859c-1.5,0.771-1.45,2.391-1.53,3.83
		c7.641,0.24,15.311,0.23,22.971,0.04c0.93-1.659-0.57-2.72-1.57-3.779c-1.39-1.12-1.609-2.97-2.189-4.521
		c-2.211-0.34-4.67-0.15-6.351-1.869C1718.84,255.87,1717.34,258.109,1715.99,258.87 M1749.04,258.04c-0.07,3.3-0.07,6.61,0,9.92
		c20.97,0.06,41.95,0.06,62.92,0c0.04-3.31,0.04-6.62,0-9.92C1790.99,257.98,1770.01,257.98,1749.04,258.04 M1420.02,270.04
		c-0.02,1.97-0.029,3.94,0,5.92c151.65,0.07,303.311,0.07,454.961,0c-0.011-1.979-0.011-3.95,0-5.92
		C1723.33,269.97,1571.67,269.97,1420.02,270.04z"/>
	<path fill="#FFFFFF" d="M98.13,161.189c9.62-7.689,23.54-9.43,34.73-4.239c11.71,5.079,19.61,17.14,20.27,29.8
		c4.56-1.12,9.27-0.689,13.91-0.75c7.98-0.02,15.95,0.04,23.93-0.04c0-1.31,0.01-2.61,0.01-3.92c-2.65-0.04-5.3-0.05-7.95-0.08
		c-0.05-4.979-0.05-9.95,0-14.931c23.98-0.049,47.96-0.049,71.94,0.011c0.05,4.97,0.05,9.94,0,14.92c-2.65,0.03-5.3,0.04-7.95,0.08
		c0,1.31,0,2.61,0.01,3.92c11.03,0.11,22.05-0.03,33.08,0.069c9.9,0.351,18.58,9.061,18.87,18.971c0.07,12.65-0.03,25.3,0.05,37.95
		c1.98,0.03,3.96,0.06,5.94,0.1c0.05,7.931,0.03,15.851,0.01,23.771c1.85,0.16,4.21-0.29,4.57,2.18c5.8,0.01,11.61-0.03,17.42,0.04
		c0.03,2.96,0.03,5.92,0.021,8.89c-0.49,0-1.48,0-1.971,0c-0.02-2.3-0.029-4.6-0.06-6.899c-30.54-0.08-61.09,0-91.63-0.03
		c-1.16,2.5-2.39,5.36-5.22,6.35c-4.01,2.011-8.57-0.51-10.61-4.109c-2.02,3.609-6.63,6.12-10.62,4.1
		c-2.82-1.01-4.05-3.84-5.21-6.34c-17.58-0.01-35.16,0.01-52.74-0.01c-3.79,0.04-7.54-2.38-8.98-5.9
		c-0.81-1.729-0.7-4.15-2.95-4.689c0.05-3.641-0.13-7.28,0.07-10.92c0.48-0.25,1.45-0.75,1.93-1
		c-0.02-10.931,0.04-21.851-0.03-32.78c-5.66,3.729-12.19,6.021-18.97,6.479c-0.01,18.58,0.01,37.16-0.01,55.75
		c-0.49,0-1.49,0-1.98,0c-0.02-18.6,0-37.209-0.01-55.81c-1.67-0.17-3.33-0.351-4.99-0.521c-1.38,8.99-5.78,17.68-13.14,23.211
		C94.26,249.35,87.13,251.6,80,252.18c-0.01,8.58,0.01,17.17-0.01,25.75c-0.5,0-1.49,0-1.98-0.01c-0.02-8.58-0.01-17.16-0.01-25.74
		c-9.47-0.619-18.8-4.8-24.9-12.18c-6.78-7.9-9.68-19.029-7.33-29.21c2.25-10.61,9.91-19.88,19.92-24.069
		c6.04-2.681,12.8-3.23,19.3-2.361C86.37,175.38,90.8,166.721,98.13,161.189 M112.41,156.67c-14.09,2.76-25.16,15.98-25.43,30.33
		c-0.67,14.55,9.9,28.58,24.05,32.01c9.59,2.6,20.15,0.15,27.94-5.93c0.15-4.9-0.57-10.061,1.54-14.66
		c1.89-4.96,6.03-8.58,10.61-11.01c-0.36-7.2-2.85-14.37-7.58-19.87C136.24,158.529,123.74,154.109,112.41,156.67 M185.04,169.029
		c-0.06,3.65-0.06,7.291,0,10.941c22.64,0.049,45.28,0.049,67.92,0c0.06-3.65,0.06-7.291,0-10.941
		C230.32,168.98,207.68,168.98,185.04,169.029 M193.03,182.04c-0.01,1.3-0.01,2.61,0,3.92c17.31,0.06,34.63,0.06,51.94,0
		c0-1.31,0-2.62,0-3.92C227.66,181.98,210.34,181.98,193.03,182.04 M48.4,208.58c-3.24,10.16-0.85,21.82,6.07,29.91
		c8.43,10.46,23.82,14.449,36.25,9.3c10.99-4.21,18.88-14.86,20.22-26.479c-4.26-1.601-8.62-3.181-12.22-6.051
		c-9.02-6.539-14.1-17.689-13.85-28.75C69.38,183.26,52.82,193.471,48.4,208.58 M141.03,204.95c-0.06,18.72-0.04,37.45-0.01,56.17
		c-0.07,3.8,3.05,7.3,6.79,7.8c3.71,0.22,7.44,0.04,11.16,0.04c0.01-27.05,0.14-54.09-0.07-81.14
		C149.75,188.05,141.34,195.66,141.03,204.95 M161.04,188.04c-0.06,26.97-0.06,53.95,0,80.92c13.54,0.08,27.08,0.021,40.62,0.04
		c1.16-2.44,2.33-5.23,5.05-6.26c4.01-2.141,8.77,0.33,10.79,4.029c2.03-3.68,6.74-6.18,10.76-4.039c2.75,1,3.91,3.829,5.08,6.27
		c14.54-0.02,29.08,0.04,43.62-0.04c0.06-26.97,0.06-53.95,0-80.92C238.32,187.98,199.68,187.98,161.04,188.04 M279.1,187.82
		c-0.21,27.05-0.08,54.1-0.06,81.14c5.97,0.06,11.95,0.06,17.93,0c0.05-21.34,0.06-42.7,0-64.04
		C296.65,195.63,288.23,188.061,279.1,187.82 M299.04,245.029c-0.06,7.98-0.06,15.961,0,23.94c1.3,0,2.61,0,3.92,0
		c0.06-7.979,0.06-15.96,0-23.94C301.65,245.02,300.34,245.02,299.04,245.029 M208.2,264.28c-3.81,1.149-5.63,6.29-2.91,9.38
		c2.52,3.62,8.56,2.82,10.17-1.24C217.85,268.08,212.74,262.49,208.2,264.28 M223.13,264.31c-3.76,1.181-5.56,6.28-2.85,9.341
		c2.52,3.619,8.58,2.84,10.18-1.25C232.85,268.05,227.67,262.43,223.13,264.31z"/>
	<path fill="#FFFFFF" d="M1032.04,162.029c49.3-0.049,98.61-0.049,147.92,0.011c0.06,7.97,0.06,15.95,0,23.92
		c-49.31,0.06-98.62,0.06-147.92,0C1031.97,177.99,1031.97,170.01,1032.04,162.029 M1034.03,164.029
		c-0.05,6.65-0.05,13.291,0,19.941c47.979,0.049,95.96,0.049,143.939,0c0.05-6.65,0.05-13.291,0-19.941
		C1129.99,163.98,1082.01,163.98,1034.03,164.029z"/>
	<path fill="#FFFFFF" d="M678.04,198.04c24.64-0.06,49.28-0.06,73.92,0c0.08,14.47,0.021,28.95,0.04,43.431
		c2.46,0.329,2.02,2.609,2.1,4.469c-26.069,0.101-52.13,0.101-78.199,0c0.069-1.859-0.381-4.14,2.1-4.469
		C678.02,226.99,677.95,212.51,678.04,198.04 M680.03,200.029c-0.05,13.98-0.05,27.961,0,41.941c23.31,0.049,46.62,0.049,69.939,0
		c0.05-13.98,0.05-27.961,0-41.941c-4.319-0.049-8.63-0.049-12.939,0.011c-0.021,1.29-0.021,2.601-0.011,3.899
		c1.98,0.041,3.961,0.07,5.95,0.11c0.04,6.64,0.05,13.28,0,19.91c-18.649,0.06-37.29,0.06-55.93,0
		c-0.07-6.63-0.05-13.271-0.01-19.91c1.97-0.04,3.96-0.069,5.95-0.11c-0.011-1.299-0.011-2.609-0.011-3.91
		C688.65,199.98,684.34,199.98,680.03,200.029 M695.03,200.04c-0.011,1.3-0.021,2.61,0,3.92c13.31,0.06,26.63,0.06,39.939,0
		c0-1.31,0-2.62,0-3.92C721.66,199.971,708.34,199.98,695.03,200.04 M689.04,206.029c-0.06,5.311-0.06,10.621,0,15.941
		c17.3,0.049,34.61,0.049,51.92,0c0.06-5.32,0.06-10.631,0-15.941C723.65,205.98,706.34,205.98,689.04,206.029z"/>
	<path fill="#FFFFFF" d="M838.04,198.04c16.64-0.06,33.28-0.06,49.92,0c0.06,16.64,0.06,33.28,0,49.92
		c-16.64,0.06-33.28,0.06-49.92,0.011C837.98,231.32,837.98,214.68,838.04,198.04 M840.03,200.029
		c-0.05,11.311-0.05,22.621,0,33.941c15.31,0.049,30.62,0.049,45.93,0c0.06-11.32,0.06-22.631,0-33.941
		C870.65,199.98,855.34,199.98,840.03,200.029 M840.04,236.04c-0.06,3.3-0.06,6.61,0,9.92c15.3,0.06,30.61,0.06,45.92,0
		c0.05-3.31,0.05-6.62,0-9.92C870.65,235.98,855.34,235.98,840.04,236.04z"/>
	<path fill="#FFFFFF" d="M1046.03,198.04c24.649-0.06,49.29-0.06,73.93,0c0.06,15.97,0.06,31.95,0.01,47.92
		c-24.649,0.06-49.29,0.06-73.93,0.011C1045.98,229.99,1045.98,214.01,1046.03,198.04 M1048.04,200.029
		c-0.06,3.311-0.06,6.621,0,9.931c23.3,0.06,46.61,0.06,69.92,0c0.05-3.31,0.05-6.62,0-9.92
		C1094.65,199.98,1071.34,199.98,1048.04,200.029 M1048.04,212.029c-0.07,10.65-0.06,21.291-0.01,31.931
		c6.31,0.06,12.63,0.06,18.939,0c0-0.729-0.01-2.2-0.02-2.931c-3.3-0.029-6.59-0.049-9.88-0.039c0-0.49,0-1.49,0-1.98
		c7.279-0.02,14.569-0.02,21.859,0c0,0.49,0,1.49,0,1.98c-3.3-0.01-6.6,0.01-9.89,0.039c0,0.74,0,2.201,0,2.941
		c9.3,0.049,18.61,0.049,27.92,0c0-0.74,0-2.211,0-2.941c-3.31-0.029-6.61-0.049-9.899-0.039c0.01-0.49,0.01-1.49,0.01-1.98
		c7.29-0.01,14.58-0.02,21.869,0c0,0.5-0.01,1.49-0.01,1.99c-3.31-0.02-6.6,0-9.89,0.029c0,0.73,0,2.201,0,2.941
		c6.3,0.049,12.61,0.049,18.93-0.011c0.05-10.64,0.05-21.28,0-31.931C1094.65,211.98,1071.34,211.98,1048.04,212.029z"/>
	<path fill="#FFFFFF" d="M636.03,202.04c5.31-0.06,10.62-0.06,15.93,0c0.06,19.97,0.06,39.95,0.01,59.92
		c-5.319,0.06-10.63,0.06-15.93,0C635.98,241.99,635.98,222.01,636.03,202.04 M638.03,204.04c-0.011,7.819-0.12,15.66,0.029,23.479
		c0.49,0.25,1.46,0.75,1.95,1c-0.6,2.66,1.641,7.141-2.01,8c0.02,7.811-0.04,15.631,0.03,23.44c3.979,0.06,7.96,0.06,11.939,0
		c0.05-18.64,0.05-37.28,0-55.92C645.99,203.98,642.01,203.98,638.03,204.04z"/>
	<path fill="#FFFFFF" d="M914.04,202.04c6.63-0.06,13.28-0.06,19.92-0.011c0.06,21.311,0.06,42.621,0,63.931
		c-6.64,0.06-13.29,0.06-19.92,0C913.98,244.66,913.98,223.34,914.04,202.04 M916.03,204.04c-0.05,19.97-0.05,39.95,0,59.92
		c5.31,0.06,10.62,0.06,15.939,0c0.05-19.97,0.05-39.95,0-59.92C926.65,203.98,921.34,203.98,916.03,204.04z"/>
	<path fill="#FFFFFF" d="M936.04,202.029c6.64-0.049,13.28-0.049,19.92,0c0.06,21.311,0.06,42.621,0,63.931
		c-6.64,0.06-13.28,0.06-19.92,0C935.98,244.65,935.98,223.34,936.04,202.029 M938.03,204.04c-0.05,19.97-0.05,39.95,0,59.92
		c5.31,0.06,10.62,0.06,15.939,0c0.05-19.97,0.05-39.95,0-59.92C948.65,203.98,943.34,203.98,938.03,204.04z"/>
	<path fill="#FFFFFF" d="M1145.03,202.04c5.64-0.06,11.29-0.06,16.939,0c0.05,14.64,0.05,29.28-0.01,43.92
		c-5.64,0.06-11.29,0.06-16.92,0C1144.97,231.32,1144.98,216.68,1145.03,202.04 M1147.03,204.029c-0.05,13.311-0.05,26.621,0,39.941
		c4.31,0.049,8.62,0.049,12.939,0c0.05-13.32,0.05-26.631,0-39.941C1155.65,203.98,1151.34,203.98,1147.03,204.029z"/>
	<path fill="#FFFFFF" d="M1578.04,202.029c6.63-0.049,13.28-0.049,19.92,0c0.06,21.311,0.06,42.621,0,63.931
		c-6.64,0.06-13.29,0.06-19.93,0C1577.98,244.65,1577.97,223.34,1578.04,202.029 M1580.03,204.04c-0.05,19.97-0.05,39.95,0,59.92
		c5.31,0.06,10.62,0.06,15.939,0c0.05-19.97,0.05-39.95,0-59.92C1590.65,203.98,1585.34,203.98,1580.03,204.04z"/>
	<path fill="#FFFFFF" d="M1600.04,202.029c6.63-0.049,13.28-0.049,19.92,0.011c0.06,21.3,0.06,42.62,0,63.93
		c-6.64,0.05-13.29,0.05-19.92,0C1599.98,244.65,1599.97,223.34,1600.04,202.029 M1602.03,204.04c-0.05,19.97-0.05,39.95,0,59.92
		c5.31,0.06,10.62,0.06,15.939,0c0.05-19.97,0.05-39.95,0-59.92C1612.65,203.98,1607.34,203.98,1602.03,204.04z"/>
	<path fill="#FFFFFF" d="M185.04,208.029c22.64-0.049,45.28-0.049,67.92,0.011c0.08,7.14,0.02,14.28,0.04,21.431
		c2.46,0.329,2.02,2.609,2.1,4.469c-24.07,0.101-48.14,0.101-72.2,0c0.07-1.85-0.37-4.149,2.1-4.469
		C185.02,222.32,184.96,215.18,185.04,208.029 M187.03,210.029c-0.05,6.65-0.05,13.291,0,19.941c21.31,0.049,42.63,0.049,63.94,0
		c0.05-6.65,0.05-13.291,0-19.941C229.66,209.98,208.34,209.98,187.03,210.029z"/>
	<path fill="#FFFFFF" d="M1274.39,225.04c13.73-0.069,27.48-0.06,41.221,0c1.579,6.94,2.97,13.931,4.56,20.88
		c2.391,0.721,5.37,1.42,6.13,4.21c1.03,2.07-0.39,4.14-1.26,5.979c-0.05,1.92-0.06,3.841-0.05,5.761
		c0.75,0.069,2.26,0.189,3.01,0.26c-0.01,2.59-0.01,5.19-0.02,7.79c-1.33,0.05-2.65,0.1-3.961,0.16
		c-0.029,2.63-0.029,5.26-0.06,7.89c-2.649,0.03-5.29,0.03-7.92,0c-0.05-2.649-0.05-5.3-0.08-7.939c-13.979-0.05-27.95-0.05-41.92,0
		c-0.05,2.64-0.05,5.29-0.08,7.939c-2.649,0.03-5.29,0.03-7.92,0c-0.05-2.63-0.05-5.26-0.06-7.89c-1.341-0.061-2.66-0.11-3.961-0.16
		c-0.029-2.6-0.029-5.2-0.02-7.8c0.75-0.061,2.26-0.181,3.01-0.24c-0.02-1.93-0.029-3.851-0.05-5.771
		c-0.91-1.85-2.33-3.959-1.229-6.049c0.77-2.75,3.729-3.41,6.1-4.141C1271.4,238.971,1272.82,231.99,1274.39,225.04 M1276.41,227.12
		c-0.271,0.43-0.811,1.29-1.09,1.72c13.109,0.26,26.24,0.26,39.35,0c-0.43-1.39-1.31-2-2.64-1.84
		C1300.16,227.07,1288.27,226.84,1276.41,227.12 M1275.15,231.04c-1.011,5.56-3.101,11.06-3.08,16.72
		c9.55,0.54,19.149,0.11,28.729,0.211c1.42-1.621,2.79-3.861,5.2-3.98c2.86-0.461,4.67,2.109,6.24,4.039
		c1.88-0.02,3.79,0.011,5.689-0.27c0.01-5.66-2.08-11.16-3.08-16.72C1301.62,230.971,1288.38,230.98,1275.15,231.04 M1303.2,247.9
		c2.18,0.129,4.39,0.129,6.6,0C1308.13,245.46,1304.86,245.46,1303.2,247.9 M1266.39,249.37c-1,1.21-1.47,3.05-0.39,4.399
		c1.42,2.84,6.46,1.53,6.3-1.709C1272.79,248.96,1268.49,247.25,1266.39,249.37 M1319.22,249.01c-0.319,0.29-0.96,0.87-1.28,1.17
		c-1.979,3.811,3.95,7.311,6.07,3.57C1326.24,250.87,1322.07,246.76,1319.22,249.01 M1274.45,250c-0.33,1.939-0.04,4.34-1.7,5.75
		c-1.42,1.68-3.83,1.391-5.77,1.71c0.01,1.5,0.02,3,0.06,4.511c18.64,0.049,37.28,0.049,55.91,0c0.01-1.511,0.03-3.011,0.069-4.511
		c-1.989-0.319-4.399-0.03-5.8-1.75c-1.659-1.41-1.37-3.78-1.67-5.71C1301.85,250,1288.15,250,1274.45,250 M1264.03,264.04
		c-0.021,1.3-0.021,2.61,0,3.92c7.31,0.06,14.62,0.06,21.939,0c-0.01-1.31-0.01-2.62,0-3.92
		C1278.65,263.98,1271.34,263.98,1264.03,264.04 M1288.03,264.04c-0.021,1.3-0.021,2.61,0,3.92c4.64,0.06,9.29,0.06,13.939,0
		c-0.01-1.31-0.01-2.62,0-3.92C1297.32,263.98,1292.67,263.98,1288.03,264.04 M1304.03,264.03c-0.021,1.31-0.021,2.62,0,3.93
		c7.31,0.06,14.62,0.06,21.939,0c-0.01-1.31-0.01-2.62,0-3.92C1318.65,263.98,1311.34,263.98,1304.03,264.03z"/>
	<path fill="#FFFFFF" d="M208.4,267.5c1.75-1.6,4.72,0.37,4.59,2.52c0.15,2.421-3.49,4.25-5.06,2.051
		C206.35,270.88,206.81,268.44,208.4,267.5z"/>
	<path fill="#FFFFFF" d="M223.34,267.55c1.73-1.68,4.76,0.28,4.65,2.44c0.17,2.42-3.45,4.279-5.04,2.1
		C221.37,270.94,221.78,268.5,223.34,267.55z"/>
</g>
<g id="_x23_fcfcfcff">
	<path fill="#FDFDFD" d="M828,122.07c0.5,0,1.5,0,2,0c0,4.62,0,9.241,0,13.86c-0.5,0-1.5,0-2,0C828,131.311,828,126.689,828,122.07z
		"/>
	<path fill="#FDFDFD" d="M968,122.07c0.5,0,1.5,0,2,0c0,4.62,0,9.241,0,13.87c-0.5-0.01-1.5-0.01-2-0.01
		C967.99,131.311,967.99,126.689,968,122.07z"/>
	<path fill="#FDFDFD" d="M814,164.07c0.5,0,1.5,0,2,0c0,5.289,0,10.57,0,15.859c-0.5,0-1.5,0-2,0
		C814,174.641,814,169.359,814,164.07z"/>
	<path fill="#FDFDFD" d="M982,164.07c0.5,0,1.5,0,2,0c0,5.289,0,10.58,0,15.869c-0.5-0.01-1.5-0.01-2-0.01
		C982,174.641,981.99,169.35,982,164.07z"/>
</g>
<g id="_x23_fefefeff">
	<path fill="#FFFFFF" d="M838,144.08c0.5-0.01,1.49-0.01,1.99-0.02c0.02,11.959,0.01,23.91,0.01,35.869c-0.5,0-1.5,0-2,0
		C838,167.98,838,156.029,838,144.08z"/>
	<path fill="#FFFFFF" d="M862.01,144.061c0.5,0.01,1.49,0.02,1.99,0.02c0,11.949,0,23.891,0,35.84c-0.5,0-1.49,0.02-1.99,0.02
		C861.99,167.98,861.99,156.02,862.01,144.061z"/>
	<path fill="#FFFFFF" d="M886,144.07c0.5,0,1.5,0,2,0c0,11.949,0,23.9,0,35.85c-0.5,0.01-1.5,0.01-2,0.01
		C886,167.98,886,156.02,886,144.07z"/>
	<path fill="#FFFFFF" d="M910,144.07c0.5,0,1.5,0,2,0c0,11.949,0,23.91,0,35.859c-0.5,0-1.5,0-2,0
		C910,167.971,910,156.02,910,144.07z"/>
	<path fill="#FFFFFF" d="M934,144.07c0.5,0,1.5,0,2,0c0,11.959,0,23.91,0,35.859c-0.5,0-1.5-0.01-2-0.01
		C934,167.971,933.99,156.02,934,144.07z"/>
	<path fill="#FFFFFF" d="M958,144.07c0.5,0,1.5,0,2,0c0,11.949,0,23.9,0,35.859c-0.5,0-1.5,0-2,0C958,167.98,958,156.02,958,144.07z
		"/>
	<path fill="#FFFFFF" d="M409.03,198.029c2.64-0.039,5.29-0.039,7.939,0c0.05,7.311,0.05,14.631,0,21.941
		c-2.649,0.039-5.3,0.039-7.939,0C408.98,212.66,408.98,205.34,409.03,198.029 M411.04,200.029c-0.06,5.98-0.06,11.961,0,17.941
		c1.3,0,2.61,0,3.92,0c0.06-5.98,0.06-11.961,0-17.941C413.65,200.02,412.34,200.02,411.04,200.029z"/>
	<path fill="#FFFFFF" d="M472.03,198.029c8.649-0.049,17.29-0.049,25.939,0c0.05,5.311,0.05,10.621,0,15.941
		c-8.649,0.049-17.29,0.049-25.939,0C471.98,208.65,471.98,203.34,472.03,198.029 M474.04,200.029c-0.06,3.98-0.06,7.961,0,11.941
		c7.3,0.049,14.61,0.049,21.92,0c0.05-3.98,0.05-7.961,0-11.941C488.65,199.98,481.34,199.98,474.04,200.029z"/>
	<path fill="#FFFFFF" d="M520.03,198.029c8.649-0.049,17.29-0.049,25.939,0c0.05,5.311,0.05,10.621,0,15.941
		c-8.649,0.049-17.29,0.049-25.939,0C519.98,208.65,519.98,203.34,520.03,198.029 M522.04,200.029c-0.06,3.98-0.06,7.961,0,11.941
		c7.3,0.049,14.61,0.049,21.92,0c0.05-3.98,0.05-7.961,0-11.941C536.65,199.98,529.34,199.98,522.04,200.029z"/>
	<path fill="#FFFFFF" d="M967.04,199.029c2.63-0.039,5.27-0.039,7.92,0c0.05,3.98,0.06,7.961,0,11.941
		c-2.65,0.039-5.29,0.039-7.92,0C966.97,206.99,966.97,203.01,967.04,199.029 M969.03,201.029c-0.04,2.641-0.04,5.291,0,7.941
		c1.3,0,2.609,0,3.939,0c0.03-2.65,0.03-5.301,0-7.941C971.64,201.02,970.33,201.02,969.03,201.029z"/>
</g>
<g id="_x23_eaeaeaff">
	<path fill="#EAEAEA" d="M1036.16,166.17c1.62-0.529,2.18,0.03,1.68,1.66C1036.189,168.35,1035.64,167.8,1036.16,166.17z"/>
	<path fill="#EAEAEA" d="M1174.17,166.17c1.62-0.52,2.17,0.03,1.66,1.66C1174.189,168.35,1173.63,167.79,1174.17,166.17z"/>
	<path fill="#EAEAEA" d="M1036.17,180.17c1.62-0.52,2.17,0.03,1.66,1.66C1036.189,182.35,1035.63,181.79,1036.17,180.17z"/>
	<path fill="#EAEAEA" d="M1174.17,180.17c1.61-0.529,2.17,0.03,1.66,1.66C1174.189,182.35,1173.63,181.79,1174.17,180.17z"/>
	<path fill="#EAEAEA" d="M155.17,191.17c1.63-0.529,2.18,0.03,1.66,1.66C155.2,193.35,154.64,192.79,155.17,191.17z"/>
	<path fill="#EAEAEA" d="M281.17,191.16c1.63-0.51,2.19,0.05,1.66,1.68C281.19,193.34,280.64,192.779,281.17,191.16z"/>
	<path fill="#EAEAEA" d="M155.17,228.16c1.63-0.51,2.18,0.04,1.66,1.68C155.2,230.35,154.64,229.79,155.17,228.16z"/>
	<path fill="#EAEAEA" d="M281.17,228.17c1.62-0.529,2.18,0.03,1.66,1.66C281.2,230.35,280.64,229.79,281.17,228.17z"/>
	<path fill="#EAEAEA" d="M155.16,265.17c1.63-0.53,2.19,0.021,1.68,1.66C155.21,267.35,154.65,266.8,155.16,265.17z"/>
	<path fill="#EAEAEA" d="M281.16,265.17c1.63-0.53,2.19,0.03,1.68,1.66C281.2,267.35,280.64,266.79,281.16,265.17z"/>
</g>
<g id="_x23_fafafaff">
	<path fill="#FBFBFB" d="M428,228.07c0.5,0,1.5-0.01,2-0.01c0,2.619,0,5.25,0,7.879c-0.5,0-1.5,0-2,0
		C427.99,233.311,428,230.689,428,228.07z"/>
	<path fill="#FBFBFB" d="M928,230.061c0.5,0,1.5,0,2,0c-0.01,2.619-0.01,5.25,0,7.879c-0.5,0-1.5,0-2,0
		C927.99,235.311,927.99,232.689,928,230.061z"/>
	<path fill="#FBFBFB" d="M940,230.061c0.5,0,1.5,0,2,0c-0.01,2.629-0.01,5.25,0,7.879c-0.5,0-1.5,0-2-0.01
		C939.99,235.311,939.99,232.68,940,230.061z"/>
	<path fill="#FBFBFB" d="M1592,230.061c0.5,0,1.5,0,2,0c-0.01,2.619-0.01,5.239,0,7.869c-0.5,0-1.5,0.01-2,0.01
		C1591.99,235.311,1591.98,232.689,1592,230.061z"/>
	<path fill="#FBFBFB" d="M1604,230.061c0.5,0,1.5,0,2,0c-0.01,2.619-0.01,5.25,0,7.869c-0.5,0-1.5,0.01-2,0.01
		C1603.99,235.311,1603.98,232.689,1604,230.061z"/>
</g>
<g id="_x23_f5f5f5ff">
	<path fill="#F5F5F5" d="M1145,248.05c0.5-0.01,1.5-0.01,2-0.01c-0.01,1.3-0.01,2.61,0,3.92c-0.5,0-1.5,0-2,0
		C1144.98,250.65,1144.98,249.34,1145,248.05z"/>
</g>
<g id="_x23_fdfdfdff">
	<path fill="#FEFEFE" d="M1284.07,253c7.279,0,14.569,0,21.869,0c-0.01,0.5-0.01,1.5-0.02,2c-7.28,0-14.57,0-21.85,0
		C1284.07,254.5,1284.07,253.5,1284.07,253z"/>
	<path fill="#FEFEFE" d="M1284.08,257c7.28,0,14.56,0,21.85,0c0,0.5,0,1.5,0,2c-7.3,0-14.59,0-21.869,0
		C1284.061,258.5,1284.08,257.5,1284.08,257z"/>
</g>
</svg>
