<?xml version="1.0" encoding="utf-8"?>
<!-- Generator: Adobe Illustrator 16.0.0, SVG Export Plug-In . SVG Version: 6.00 Build 0)  -->
<!DOCTYPE svg PUBLIC "-//W3C//DTD SVG 1.1//EN" "http://www.w3.org/Graphics/SVG/1.1/DTD/svg11.dtd">
<svg version="1.1" id="Layer_1" xmlns="http://www.w3.org/2000/svg" xmlns:xlink="http://www.w3.org/1999/xlink" x="0px" y="0px"
	 width="198.637px" height="61.426px" viewBox="0 0 198.637 61.426" enable-background="new 0 0 198.637 61.426"
	 xml:space="preserve">
<g>
	<path fill="none" d="M24.536,20.999c0.088-4.606-2.924-8.857-7.885-8.857c-3.985,0-7.972,3.72-9.3,10.895
		c4.96,0,9.92-0.089,15.059-0.266C24.004,22.771,24.536,22.328,24.536,20.999z"/>
	<path fill="none" d="M171.267,37.652c0,4.517,3.543,6.731,6.289,6.731c2.304,0,5.403-1.506,7.086-3.188V27.377
		c-1.858,0.974-6.11,2.834-7.972,3.72C173.215,32.692,171.267,34.375,171.267,37.652z"/>
	<path fill="#FFFFFF" d="M17.272,49.698c2.746,0,8.858-1.594,14.438-8.502l-1.328-1.949c-3.278,3.012-6.555,4.428-10.188,4.428
		c-6.199,0-13.197-4.959-13.285-17.006c10.629-0.354,21.79-1.24,23.207-1.505c1.683-0.355,2.036-1.063,2.036-2.835
		c0-6.82-5.934-13.464-13.285-13.464h-0.09c-4.517,0-9.301,2.48-12.932,6.466C2.214,19.316,0,24.808,0,30.831
		C0,40.84,6.377,49.698,17.272,49.698z M16.652,12.142c4.961,0,7.973,4.251,7.885,8.857c0,1.329-0.532,1.772-2.126,1.772
		c-5.139,0.177-10.099,0.266-15.059,0.266C8.68,15.862,12.666,12.142,16.652,12.142z"/>
	<path fill="#FFFFFF" d="M194.562,43.852c-1.505,0-3.1-1.328-3.1-5.314V22.151c0-4.695-0.886-8.238-3.986-10.895
		c-1.947-1.595-4.604-2.392-7.263-2.392c-5.049,1.063-10.896,4.429-13.287,6.201c-1.683,1.24-2.746,2.303-2.746,3.543
		c0,2.126,2.215,3.809,3.81,3.809c1.239,0,2.127-0.62,2.568-2.038c0.709-2.657,1.507-4.606,2.569-5.846
		c0.974-1.063,2.303-1.683,3.985-1.683c4.518,0,7.528,3.543,7.528,10.009v1.506c-1.948,1.595-8.415,3.986-13.729,5.758
		c-4.871,1.683-7.175,4.429-7.175,8.769c0,5.581,4.341,10.806,10.63,10.806c2.656,0,6.908-3.275,10.451-5.668
		c0.442,1.506,0.975,2.746,2.126,3.898c0.975,0.973,2.834,1.77,4.163,1.77l7.528-4.516l-0.886-2.305
		C196.866,43.409,195.625,43.852,194.562,43.852z M184.642,41.196c-1.683,1.684-4.782,3.188-7.086,3.188
		c-2.746,0-6.289-2.215-6.289-6.731c0-3.276,1.948-4.96,5.403-6.555c1.859-0.886,6.112-2.746,7.972-3.72V41.196z"/>
	<path fill="#FFFFFF" d="M63.42,12.23c5.049,0.62,5.58,1.595,4.163,5.846c-1.949,5.758-4.783,13.73-7.884,21.083
		c-2.568-6.289-6.2-15.679-8.414-21.88c-1.418-3.809-1.24-4.517,3.543-5.049V9.927H36.669v2.303c4.784,0.709,5.404,1.329,7.44,6.378
		c4.252,10.363,8.326,20.373,12.225,31.002h2.479c4.96-13.199,9.566-24.094,12.578-30.737c2.392-5.227,3.101-6.024,7.795-6.644
		V9.927H63.42V12.23z"/>
	<path fill="#FFFFFF" d="M129.194,12.23v2.038c5.138,0.62,5.49,0.974,5.49,6.82v18.334c0,5.848-0.619,6.379-6.109,6.91v2.305h20.371
		v-2.305c-6.819-0.531-7.264-1.062-7.264-6.91V23.214c1.949-4.961,4.783-7.529,7.086-7.529c1.417,0,2.48,0.531,3.811,1.771
		c0.53,0.532,1.239,0.62,2.303,0.177c1.684-0.797,2.834-2.568,2.834-4.34c0-2.037-2.125-4.429-5.137-4.429
		c-4.252,0-8.062,4.961-10.719,9.478h-0.178V8.687C137.431,10.459,133.534,11.522,129.194,12.23z"/>
	<path fill="#FFFFFF" d="M102.009,49.7c10.077,0,18.431-7.307,20.099-16.906h-7.765c-1.855,5.68-6.515,9.738-13.133,9.543
		c-8.536-0.252-14.713-6.779-14.01-15.818c0.688-8.848,6.708-13.393,13.96-14.161c7.583-0.804,13.155,3.214,15.409,8.764l2.72-1.332
		c-3.479-6.299-9.576-10.927-17.28-10.927c-11.277,0-20.418,9.141-20.418,20.418C81.591,40.557,90.732,49.7,102.009,49.7z"/>
	<polygon fill="#F58025" points="128.328,32.793 118.479,22.943 108.628,32.793 114.343,32.793 122.107,32.793 	"/>
</g>
</svg>
