<?xml version="1.0" encoding="utf-8"?>
<!-- Generator: Adobe Illustrator 16.0.0, SVG Export Plug-In . SVG Version: 6.00 Build 0)  -->
<!DOCTYPE svg PUBLIC "-//W3C//DTD SVG 1.1//EN" "http://www.w3.org/Graphics/SVG/1.1/DTD/svg11.dtd">
<svg version="1.1" id="Layer_1" xmlns="http://www.w3.org/2000/svg" xmlns:xlink="http://www.w3.org/1999/xlink" x="0px" y="0px"
	 width="1474.016px" height="850.394px" viewBox="0 0 1474.016 850.394" enable-background="new 0 0 1474.016 850.394"
	 xml:space="preserve">
<path fill="#00829B" d="M1115.078,785.84c197.777,0,358.104-160.341,358.104-358.104c0-197.784-160.326-358.122-358.104-358.122
	c-197.773,0-358.117,160.338-358.117,358.122C756.961,625.498,917.305,785.84,1115.078,785.84"/>
<path fill="#00B2D5" d="M358.953,785.84c197.777,0,358.104-160.332,358.104-358.104c0-197.778-160.328-358.112-358.104-358.112
	C161.178,69.625,0.834,229.96,0.834,427.737C0.834,625.508,161.178,785.84,358.953,785.84"/>
<path fill="#FFFFFF" d="M172.278,426.704l61.104-61.261c2.032-2.072,3.158-4.816,3.158-7.717c0-6.043-4.91-10.929-10.943-10.929
	c-2.957,0-5.724,1.142-7.804,3.252l-61.058,61.02l-61.323-61.122c-2.079-2.048-4.815-3.151-7.738-3.151
	c-6.021,0-10.93,4.886-10.93,10.929c0,2.949,1.157,5.707,3.269,7.795l61.103,61.087L80.06,487.805
	c-2.158,2.11-3.315,4.879-3.315,7.834c0,6.052,4.909,10.932,10.93,10.932c2.922,0,5.659-1.13,7.738-3.191l61.246-61.137
	l60.995,60.916c2.173,2.252,4.957,3.443,7.944,3.443c6.033,0,10.943-4.911,10.943-10.963c0-2.926-1.143-5.645-3.19-7.708
	L172.278,426.704z"/>
<path fill="#FFFFFF" d="M535.576,426.687c0,10.959,8.924,19.889,19.919,19.889c10.962,0,19.872-8.93,19.872-19.889
	c0-10.976-8.909-19.896-19.872-19.896C544.5,406.791,535.576,415.711,535.576,426.687"/>
<path fill="#FFFFFF" d="M497.831,426.687c0-31.771,25.861-57.625,57.648-57.625c31.742,0,57.601,25.855,57.601,57.625
	c0,31.772-25.861,57.616-57.601,57.616C523.692,484.303,497.831,458.459,497.831,426.687 M475.173,426.687
	c0,44.283,36.025,80.275,80.307,80.275c44.278,0,80.303-35.992,80.303-80.275c0-44.279-36.025-80.305-80.303-80.305
	C511.198,346.382,475.173,382.408,475.173,426.687"/>
<path fill="#FFFFFF" d="M469.481,347.759h-3.376c-10.116,0-19.872,3.19-28.019,9.474c-1.062-4.931-5.473-8.615-10.678-8.615
	c-6.021,0-10.854,4.833-10.886,10.844c0,0.024,0.047,135.243,0.047,135.243c0.019,6.02,4.944,10.915,10.945,10.915
	c6.02,0,10.945-4.896,10.962-10.932c0-0.017,0-83.15,0-83.15c0-27.715,2.532-38.911,26.285-41.881
	c2.187-0.266,4.58-0.225,4.58-0.225c6.503-0.222,11.117-4.686,11.117-10.73C480.459,352.669,475.518,347.759,469.481,347.759"/>
<path fill="#FFFFFF" d="M259.229,413.46c0-0.282,0.018-0.611,0.033-0.922c6.346-25.113,29.113-43.718,56.21-43.718
	c27.456,0,50.426,19.051,56.461,44.64H259.229z M394.338,411.396c-4.724-22.335-16.95-40.691-35.572-52.467
	c-27.222-17.292-63.169-16.331-89.469,2.377c-21.45,15.252-33.834,40.223-33.834,65.929c0,6.439,0.767,12.96,2.393,19.373
	c8.098,31.849,35.493,55.976,68.141,59.964c9.708,1.171,19.139,0.622,28.911-1.926c8.381-2.048,16.512-5.44,23.985-10.225
	c7.771-5.005,14.26-11.587,20.546-19.468c0.124-0.14,0.249-0.266,0.374-0.438c4.362-5.396,3.568-13.103-1.235-16.762
	c-4.049-3.098-10.85-4.361-16.169,2.484c-1.14,1.628-2.438,3.316-3.844,5.006c-4.239,4.689-9.522,9.241-15.823,12.759
	c-8.022,4.3-17.201,6.755-26.926,6.785c-31.85-0.343-48.875-22.566-54.959-38.434c-1.029-2.971-1.859-6.035-2.423-9.21
	c-0.094-0.59-0.125-1.174-0.157-1.687c6.583,0,114.283-0.019,114.283-0.019C388.238,435.115,396.684,424.046,394.338,411.396"/>
<g>
	<path fill="#FFFFFF" d="M945.104,359.207c-1.398,0-2.234-0.557-3.818-1.676c-2.234-1.489-4.935-2.418-8.381-2.418
		c-9.497,0-14.055,6.422-14.055,20.106v10.334c0,14.336,4.374,19.832,13.498,19.832c3.352,0,6.609-0.84,9.217-2.607
		c1.579-1.025,2.512-1.585,3.909-1.678c2.42,0,4.377,1.955,4.377,4.563c0,1.397-0.653,2.792-1.956,4.003
		c-4.099,3.817-10.799,5.398-15.549,5.398c-17.498,0-24.109-11.914-24.109-29.416v-10.706c0-16.852,6.703-29.419,24.667-29.419
		c5.311,0,11.267,1.585,14.897,5.028c1.396,1.302,2.145,2.606,2.145,3.911C949.946,356.692,948.362,359.207,945.104,359.207z"/>
	<path fill="#FFFFFF" d="M996.955,414.228h-31.372c-2.793,0-5.028-2.237-5.028-5.028v-57.72c0-2.794,2.235-5.119,5.028-5.119h30.072
		c2.792,0,5.025,2.325,5.025,5.119c0,2.793-2.233,5.026-5.025,5.026h-24.487v18.899h22.251c2.7,0,4.842,2.233,4.842,4.934
		c0,2.701-2.142,4.935-4.842,4.935h-22.251v18.899h25.787c2.794,0,5.028,2.234,5.028,5.028
		C1001.983,411.991,999.749,414.228,996.955,414.228z"/>
	<path fill="#FFFFFF" d="M1052.438,415.063c-1.769,0-3.445-0.835-4.65-3.164c-3.91-8.377-8.658-16.664-13.781-24.856h-10.612v22.715
		c0,2.977-2.327,5.304-5.307,5.304c-2.885,0-5.305-2.327-5.305-5.304v-58.092c0-2.887,2.42-5.305,5.305-5.305h17.691
		c14.706,0,21.504,7.26,21.504,18.338v3.91c0,7.539-4.099,13.967-12.106,16.479c4.563,7.445,8.753,14.895,12.29,22.436
		C1059.423,411.712,1055.886,415.063,1052.438,415.063z M1046.669,364.698c0-4.841-3.259-8.38-11.08-8.38h-12.197v21.04h11.916
		c7.357,0,11.358-3.722,11.358-8.75v-3.91H1046.669z"/>
	<path fill="#FFFFFF" d="M1110.996,356.598h-15.827v53.16c0,2.977-2.424,5.304-5.305,5.304c-2.981,0-5.31-2.327-5.31-5.304v-53.16
		h-15.92c-2.792,0-5.121-2.233-5.121-5.118c0-2.794,2.329-5.119,5.121-5.119h42.363c2.883,0,5.119,2.325,5.119,5.119
		C1116.114,354.365,1113.88,356.598,1110.996,356.598z"/>
	<path fill="#FFFFFF" d="M1129.89,415.063c-2.887,0-5.307-2.327-5.307-5.304v-58.93c0-2.886,2.42-5.307,5.307-5.307
		c2.979,0,5.304,2.42,5.304,5.307v58.93C1135.193,412.736,1132.868,415.063,1129.89,415.063z"/>
	<path fill="#FFFFFF" d="M1182.673,356.506h-23.738v18.899h19.737c2.697,0,4.93,2.233,4.93,4.934c0,2.701-2.232,4.935-4.93,4.935
		h-19.737v24.485c0,2.977-2.33,5.304-5.309,5.304c-2.883,0-5.305-2.327-5.305-5.304v-58.278c0-2.794,2.235-5.119,5.027-5.119h29.324
		c2.791,0,5.118,2.325,5.118,5.119C1187.791,354.274,1185.464,356.506,1182.673,356.506z"/>
	<path fill="#FFFFFF" d="M1202.966,415.063c-2.887,0-5.308-2.327-5.308-5.304v-58.93c0-2.886,2.421-5.307,5.308-5.307
		c2.978,0,5.306,2.42,5.306,5.307v58.93C1208.271,412.736,1205.943,415.063,1202.966,415.063z"/>
	<path fill="#FFFFFF" d="M1257.798,414.228h-31.372c-2.796,0-5.028-2.237-5.028-5.028v-57.72c0-2.794,2.233-5.119,5.028-5.119
		h30.068c2.793,0,5.029,2.325,5.029,5.119c0,2.793-2.236,5.026-5.029,5.026h-24.484v18.899h22.25c2.702,0,4.841,2.233,4.841,4.934
		c0,2.701-2.139,4.935-4.841,4.935h-22.25v18.899h25.788c2.792,0,5.025,2.234,5.025,5.028
		C1262.823,411.991,1260.59,414.228,1257.798,414.228z"/>
	<path fill="#FFFFFF" d="M1296.802,414.228h-17.873c-2.888,0-5.306-2.329-5.306-5.308v-57.254c0-2.887,2.418-5.305,5.306-5.305
		h17.873c20.763,0,24.021,15.08,24.021,25.322v17.407C1320.823,399.331,1317.564,414.228,1296.802,414.228z M1310.208,371.775
		c0-8.286-2.515-15.269-14.057-15.269h-11.919v47.759h11.919c11.636,0,14.057-6.982,14.057-15.175V371.775z"/>
</g>
<g>
	<path fill="#FFFFFF" d="M979.405,508.161c-2.231,0-4.463-1.301-5.118-4.187c-0.931-3.91-2.048-7.82-3.07-11.639h-24.204
		c-1.119,3.818-2.146,7.729-3.075,11.639c-0.649,2.886-2.792,4.187-4.932,4.187c-2.981,0-6.057-2.512-5.122-6.42
		c4.844-20.485,11.078-39.194,18.525-57.536c1.956-4.746,4.376-5.68,6.799-5.68c2.325,0,5.023,1.026,6.888,5.68
		c7.445,18.342,13.684,37.051,18.524,57.536C985.554,505.647,982.389,508.161,979.405,508.161z M959.116,455.375
		c-3.449,8.938-6.613,18.062-9.497,27.463h18.989C965.725,473.436,962.557,464.312,959.116,455.375z"/>
	<path fill="#FFFFFF" d="M1016.554,507.323h-17.876c-2.886,0-5.306-2.327-5.306-5.305v-57.256c0-2.887,2.42-5.304,5.306-5.304
		h17.876c20.757,0,24.016,15.081,24.016,25.321v17.405C1040.569,492.429,1037.311,507.323,1016.554,507.323z M1029.958,464.87
		c0-8.283-2.512-15.266-14.056-15.266h-11.917v47.758h11.917c11.637,0,14.056-6.98,14.056-15.173V464.87z"/>
	<path fill="#FFFFFF" d="M1079.48,502.669c-1.396,4.001-3.726,5.491-6.422,5.491c-2.978,0-5.121-1.393-6.519-5.491
		c-7.165-20.017-13.312-39.102-18.524-57.255c-1.209-4.099,2.048-6.797,5.213-6.797c2.144,0,4.189,1.211,4.935,3.912
		c4.377,15.081,9.4,31.56,15.174,48.037c5.866-16.572,11.077-33.142,15.549-48.314c0.742-2.516,2.604-3.633,4.561-3.633
		c3.072,0,6.143,2.514,5.027,6.33C1093.168,463.287,1086.744,482.466,1079.48,502.669z"/>
	<path fill="#FFFFFF" d="M1112.53,508.161c-2.887,0-5.308-2.326-5.308-5.307v-58.927c0-2.888,2.421-5.308,5.308-5.308
		c2.979,0,5.304,2.42,5.304,5.308v58.927C1117.834,505.834,1115.509,508.161,1112.53,508.161z"/>
	<path fill="#FFFFFF" d="M1150.789,508.161c-6.701,0-12.381-0.74-17.593-2.794c-2.422-0.932-3.537-2.886-3.537-4.842
		c0-2.604,1.769-5.024,4.649-5.024c1.773,0,3.449,1.302,7.638,2.233c2.048,0.467,4.559,0.837,8.009,0.837
		c10.424,0,14.892-4.375,14.892-10.795c0-4.845-2.42-7.079-9.027-8.937c-4.845-1.399-12.941-2.421-17.599-4.845
		c-4.837-2.512-8.284-6.89-8.284-14.615c0-13.314,9.962-20.762,22.623-20.762c5.584,0,10.519,0.649,15.267,2.325
		c2.42,0.933,3.631,2.793,3.631,4.75c0,2.608-1.859,5.119-4.935,5.119c-1.676,0-3.071-1.117-6.516-1.861
		c-1.677-0.372-3.819-0.649-6.703-0.649c-8.102,0-12.756,3.816-12.756,9.868c0,5.307,3.166,7.169,9.218,8.845
		c5.958,1.585,13.965,2.418,18.617,5.4c4.747,3.166,7.076,7.727,7.076,14.336C1175.461,500.808,1165.314,508.161,1150.789,508.161z"
		/>
	<path fill="#FFFFFF" d="M1209.252,508.255c-17.782,0-23.742-12.569-23.742-25.231v-19.269c0-12.663,5.962-25.138,23.742-25.138
		c17.781,0,23.832,12.475,23.832,25.138v19.269C1233.082,495.686,1227.033,508.255,1209.252,508.255z M1222.472,463.755
		c0-8.754-3.073-15.454-13.222-15.454c-10.147,0-13.127,6.608-13.127,15.454v19.269c0,8.845,3.073,15.547,13.127,15.547
		c10.147,0,13.222-6.702,13.222-15.547V463.755z"/>
	<path fill="#FFFFFF" d="M1286.241,508.161c-1.771,0-3.446-0.835-4.658-3.165c-3.91-8.379-8.657-16.663-13.775-24.856h-10.616
		v22.715c0,2.98-2.326,5.307-5.306,5.307c-2.888,0-5.308-2.326-5.308-5.307v-58.092c0-2.887,2.42-5.304,5.308-5.304h17.686
		c14.708,0,21.507,7.263,21.507,18.341v3.908c0,7.541-4.095,13.966-12.103,16.479c4.562,7.446,8.752,14.896,12.292,22.435
		C1293.221,504.809,1289.684,508.161,1286.241,508.161z M1280.464,457.796c0-4.845-3.259-8.379-11.077-8.379h-12.195v21.041h11.916
		c7.353,0,11.355-3.726,11.355-8.753L1280.464,457.796L1280.464,457.796z"/>
</g>
</svg>
